<?xml version="1.0" encoding="UTF-8"?>
<svg version="1.1" xmlns="http://www.w3.org/2000/svg" width="256" height="256">
<path d="M0 0 C2.32155077 0.28262581 4.64483065 0.5432722 6.96948242 0.79907227 C11.05195629 1.24888892 15.12564979 1.74927482 19.19995117 2.26782227 C19.19995117 2.92782227 19.19995117 3.58782227 19.19995117 4.26782227 C22.16995117 4.59782227 25.13995117 4.92782227 28.19995117 5.26782227 C28.19995117 5.92782227 28.19995117 6.58782227 28.19995117 7.26782227 C29.84995117 7.26782227 31.49995117 7.26782227 33.19995117 7.26782227 C33.19995117 7.92782227 33.19995117 8.58782227 33.19995117 9.26782227 C34.25182617 9.35032227 35.30370117 9.43282227 36.38745117 9.51782227 C40.53890156 10.33450103 42.06558818 11.55702184 45.19995117 14.26782227 C46.53072107 14.61124675 47.86427096 14.944021 49.19995117 15.26782227 C54.94643005 18.76078001 54.94643005 18.76078001 56.19995117 21.26782227 C57.18995117 21.59782227 58.17995117 21.92782227 59.19995117 22.26782227 C59.52995117 22.92782227 59.85995117 23.58782227 60.19995117 24.26782227 C60.83932617 24.55657227 61.47870117 24.84532227 62.13745117 25.14282227 C64.19995117 26.26782227 64.19995117 26.26782227 65.07495117 28.08032227 C66.9940891 31.81197934 70.46185163 34.39877249 74.19995117 36.26782227 C74.33788086 36.84016602 74.47581055 37.41250977 74.61791992 38.00219727 C75.37307804 40.94173892 76.85540982 42.97726208 78.51245117 45.51782227 C84.63954953 55.81790324 88.01430684 68.43417809 85.57495117 80.31079102 C83.65401097 87.62579992 80.70831574 93.02619502 76.00463867 98.92797852 C74.16988768 101.1355588 74.16988768 101.1355588 73.18432617 103.40844727 C71.30638033 106.95567829 67.74263854 108.61788878 64.19995117 110.26782227 C61.48128371 110.91132337 59.01307828 111.08335491 56.19995117 111.26782227 C55.04403693 111.5189199 55.04403693 111.5189199 53.86477089 111.77509022 C50.77762798 112.34591091 47.89048609 112.39688422 44.75033569 112.40153503 C43.4467511 112.40580002 42.1431665 112.410065 40.80007935 112.41445923 C39.36224362 112.41410974 37.92440792 112.41364822 36.48657227 112.41308594 C34.96675535 112.4160794 33.44693919 112.41948236 31.92712402 112.42326355 C27.80284204 112.43209147 23.67858081 112.43444123 19.55429029 112.43507934 C16.97402322 112.43579084 14.3937614 112.43792713 11.81349564 112.44057655 C2.80119747 112.44982792 -6.21108592 112.45391194 -15.22338867 112.453125 C-23.60582651 112.45252515 -31.9881998 112.46305926 -40.37062132 112.47886866 C-47.58017929 112.49197828 -54.78971627 112.49730742 -61.99928606 112.49666959 C-66.2993073 112.49641549 -70.59927124 112.49921761 -74.89928055 112.50984764 C-78.94912481 112.51958563 -82.99885768 112.51956904 -87.04870605 112.51233101 C-88.52764424 112.51129202 -90.00658956 112.51360686 -91.48551559 112.51969147 C-101.6853724 112.55890652 -112.28668108 112.41467487 -121.80004883 108.26782227 C-122.46004883 107.27782227 -123.12004883 106.28782227 -123.80004883 105.26782227 C-124.79004883 104.93782227 -125.78004883 104.60782227 -126.80004883 104.26782227 C-127.51548293 102.96000872 -128.17474845 101.62104865 -128.80004883 100.26782227 C-129.91288007 98.77947901 -131.03910283 97.30109951 -132.17504883 95.83032227 C-138.54451568 86.82796515 -140.93815026 76.91473522 -139.32739258 66.09204102 C-137.54202248 56.30992344 -134.59209515 45.97763993 -126.80004883 39.26782227 C-125.53161133 39.02032227 -125.53161133 39.02032227 -124.23754883 38.76782227 C-121.71138847 38.46313301 -121.71138847 38.46313301 -119.98754883 36.64282227 C-118.38436108 33.43644676 -118.59625124 30.80031375 -118.80004883 27.26782227 C-118.01629883 27.02032227 -117.23254883 26.77282227 -116.42504883 26.51782227 C-113.69019125 25.58031914 -113.69019125 25.58031914 -113.08911133 23.48266602 C-111.08003665 20.03071043 -107.94254925 18.55656771 -104.55004883 16.58032227 C-103.89391602 16.17749023 -103.2377832 15.7746582 -102.56176758 15.35961914 C-98.59602074 13.00618886 -95.42376314 11.89024535 -90.80004883 11.26782227 C-90.14004883 10.60782227 -89.48004883 9.94782227 -88.80004883 9.26782227 C-87.81004883 8.93782227 -86.82004883 8.60782227 -85.80004883 8.26782227 C-83.57265181 7.2058049 -83.57265181 7.2058049 -80.80004883 5.26782227 C-78.37426758 4.74047852 -78.37426758 4.74047852 -75.48754883 4.33032227 C-71.01263852 3.6505213 -66.64473159 2.79719946 -62.23754883 1.76782227 C-41.58384201 -2.70336481 -20.87885289 -2.57545837 0 0 Z " fill="#FDBD48" transform="translate(154.800048828125,104.732177734375)"/>
<path d="M0 0 C2.32155077 0.28262581 4.64483065 0.5432722 6.96948242 0.79907227 C11.05195629 1.24888892 15.12564979 1.74927482 19.19995117 2.26782227 C19.19995117 2.92782227 19.19995117 3.58782227 19.19995117 4.26782227 C22.16995117 4.59782227 25.13995117 4.92782227 28.19995117 5.26782227 C28.19995117 5.92782227 28.19995117 6.58782227 28.19995117 7.26782227 C29.84995117 7.26782227 31.49995117 7.26782227 33.19995117 7.26782227 C33.19995117 7.92782227 33.19995117 8.58782227 33.19995117 9.26782227 C34.25182617 9.35032227 35.30370117 9.43282227 36.38745117 9.51782227 C40.53890156 10.33450103 42.06558818 11.55702184 45.19995117 14.26782227 C46.53072107 14.61124675 47.86427096 14.944021 49.19995117 15.26782227 C54.94643005 18.76078001 54.94643005 18.76078001 56.19995117 21.26782227 C57.18995117 21.59782227 58.17995117 21.92782227 59.19995117 22.26782227 C59.52995117 22.92782227 59.85995117 23.58782227 60.19995117 24.26782227 C60.83932617 24.55657227 61.47870117 24.84532227 62.13745117 25.14282227 C64.19995117 26.26782227 64.19995117 26.26782227 65.07495117 28.08032227 C66.9940891 31.81197934 70.46185163 34.39877249 74.19995117 36.26782227 C74.33788086 36.84016602 74.47581055 37.41250977 74.61791992 38.00219727 C75.37307804 40.94173892 76.85540982 42.97726208 78.51245117 45.51782227 C84.63954953 55.81790324 88.01430684 68.43417809 85.57495117 80.31079102 C83.65401097 87.62579992 80.70831574 93.02619502 76.00463867 98.92797852 C74.16988768 101.1355588 74.16988768 101.1355588 73.18432617 103.40844727 C71.30638033 106.95567829 67.74263854 108.61788878 64.19995117 110.26782227 C61.48128371 110.91132337 59.01307828 111.08335491 56.19995117 111.26782227 C55.04403693 111.5189199 55.04403693 111.5189199 53.86477089 111.77509022 C50.77762798 112.34591091 47.89048609 112.39688422 44.75033569 112.40153503 C43.4467511 112.40580002 42.1431665 112.410065 40.80007935 112.41445923 C39.36224362 112.41410974 37.92440792 112.41364822 36.48657227 112.41308594 C34.96675535 112.4160794 33.44693919 112.41948236 31.92712402 112.42326355 C27.80284204 112.43209147 23.67858081 112.43444123 19.55429029 112.43507934 C16.97402322 112.43579084 14.3937614 112.43792713 11.81349564 112.44057655 C2.80119747 112.44982792 -6.21108592 112.45391194 -15.22338867 112.453125 C-23.60582651 112.45252515 -31.9881998 112.46305926 -40.37062132 112.47886866 C-47.58017929 112.49197828 -54.78971627 112.49730742 -61.99928606 112.49666959 C-66.2993073 112.49641549 -70.59927124 112.49921761 -74.89928055 112.50984764 C-78.94912481 112.51958563 -82.99885768 112.51956904 -87.04870605 112.51233101 C-88.52764424 112.51129202 -90.00658956 112.51360686 -91.48551559 112.51969147 C-101.6853724 112.55890652 -112.28668108 112.41467487 -121.80004883 108.26782227 C-122.46004883 107.27782227 -123.12004883 106.28782227 -123.80004883 105.26782227 C-124.79004883 104.93782227 -125.78004883 104.60782227 -126.80004883 104.26782227 C-127.51548293 102.96000872 -128.17474845 101.62104865 -128.80004883 100.26782227 C-129.91288007 98.77947901 -131.03910283 97.30109951 -132.17504883 95.83032227 C-138.54451568 86.82796515 -140.93815026 76.91473522 -139.32739258 66.09204102 C-137.54812665 56.34336844 -134.60774588 45.92871472 -126.80004883 39.26782227 C-123.7819346 39.4453584 -122.96269668 40.10517442 -120.80004883 42.26782227 C-121.13689703 46.29625174 -122.71744544 49.19531086 -124.73754883 52.64282227 C-129.6007138 61.40118412 -131.3427908 69.88067822 -129.26489258 79.83032227 C-126.4171241 89.04277548 -120.93389947 95.29018889 -112.67504883 100.08032227 C-107.86913861 102.06537214 -103.51872881 102.39467487 -98.34370422 102.40826416 C-97.03867447 102.4139743 -95.73364471 102.41968445 -94.3890686 102.42556763 C-92.94964609 102.42681285 -91.51022347 102.42793797 -90.07080078 102.42895508 C-88.54936097 102.43358633 -87.02792231 102.4386114 -85.50648499 102.44400024 C-81.37814254 102.45709799 -77.24981635 102.46356425 -73.12145638 102.4680109 C-70.53918698 102.47094629 -67.95692196 102.47505201 -65.37465477 102.47951508 C-57.2865893 102.49318403 -49.19853393 102.50285324 -41.11045772 102.50671697 C-31.79045044 102.51119427 -22.47059006 102.52872946 -13.15062743 102.55771756 C-5.93598964 102.57937431 1.27860695 102.5894234 8.49327689 102.59075809 C12.79721311 102.59180339 17.10101111 102.59765242 21.40491295 102.6155777 C25.45725373 102.63212727 29.50935343 102.63418072 33.56171608 102.62543869 C35.04269179 102.62467195 36.52368083 102.62896282 38.00462341 102.63889694 C50.50068092 102.71775248 59.81544576 101.81717716 68.99291992 92.84204102 C75.19550703 85.60751907 77.06284042 78.26932957 76.68041992 68.82250977 C75.20894117 57.93595969 69.85922848 47.76740215 61.98510742 40.11547852 C60.19995117 38.26782227 60.19995117 38.26782227 60.19995117 36.26782227 C59.61729492 36.00356445 59.03463867 35.73930664 58.43432617 35.46704102 C56.12583092 34.22804094 54.42175788 32.79546818 52.44995117 31.08032227 C49.54835113 28.87316825 47.80950686 27.82029118 44.13745117 28.20532227 C39.03685411 29.32986335 34.54670569 31.36998592 30.19995117 34.26782227 C27.63745117 34.51782227 27.63745117 34.51782227 25.19995117 34.26782227 C24.53995117 33.60782227 23.87995117 32.94782227 23.19995117 32.26782227 C23.30151367 29.81860352 23.30151367 29.81860352 24.19995117 27.26782227 C26.16088867 25.68579102 26.16088867 25.68579102 28.57495117 24.45532227 C29.36643555 24.03637695 30.15791992 23.61743164 30.97338867 23.18579102 C33.19995117 22.26782227 33.19995117 22.26782227 36.19995117 22.26782227 C36.19995117 21.60782227 36.19995117 20.94782227 36.19995117 20.26782227 C34.53519431 19.92507821 32.86799794 19.59417924 31.19995117 19.26782227 C29.80776367 18.80375977 29.80776367 18.80375977 28.38745117 18.33032227 C23.35683047 18.23168264 20.77698144 20.95252592 17.19995117 24.26782227 C8.5673082 32.66111284 3.48543254 41.06998191 3.19995117 53.26782227 C4.84995117 53.59782227 6.49995117 53.92782227 8.19995117 54.26782227 C8.38170898 53.68774414 8.5634668 53.10766602 8.75073242 52.51000977 C11.84701 42.88773177 11.84701 42.88773177 14.19995117 39.26782227 C16.76245117 38.26782227 16.76245117 38.26782227 19.19995117 38.26782227 C21.19995117 40.26782227 21.19995117 40.26782227 21.51245117 42.39282227 C20.81381088 48.82031296 17.80803687 56.11638538 13.69995117 61.08032227 C10.21542962 63.83890183 6.43628273 63.62683341 2.19995117 63.26782227 C-1.82850441 61.13958158 -4.10784653 59.48294436 -5.80004883 55.26782227 C-7.67034096 44.40044059 -1.98157953 34.47512096 3.58666992 25.52563477 C6.0872647 22.02601302 9.03401981 19.15778867 12.19995117 16.26782227 C13.20453826 15.27243049 14.20597511 14.27381013 15.19995117 13.26782227 C7.31169684 10.74358088 0.43012984 12.89109047 -6.80004883 16.26782227 C-17.68860845 22.58819308 -25.34178689 31.05508362 -28.63598633 43.40063477 C-29.1099477 45.47485282 -29.58390617 47.54907154 -30.05786133 49.62329102 C-31.20617507 53.71491417 -33.04061068 56.19879656 -36.65161133 58.39282227 C-40.3896994 59.91524359 -43.95836 59.23338042 -47.80004883 58.26782227 C-50.619976 56.4466193 -52.30350361 55.26091271 -53.80004883 52.26782227 C-55.48969708 37.06098804 -48.66446638 23.20305247 -39.42504883 11.58032227 C-38.22528474 10.13566251 -37.02012289 8.69537085 -35.80004883 7.26782227 C-51.1069631 9.31874869 -63.45679744 12.04733932 -73.67504883 24.56469727 C-78.05548159 30.79548525 -80.2496742 37.1048981 -82.02734375 44.42944336 C-83.12816682 48.78747569 -84.18362033 51.50882614 -87.80004883 54.26782227 C-91.52905199 55.51082332 -94.93354097 55.93898967 -98.80004883 55.26782227 C-101.82396435 53.52874639 -104.21753544 51.43284905 -105.80004883 48.26782227 C-106.14256184 42.19325328 -105.86395381 36.25228777 -104.80004883 30.26782227 C-105.24735352 30.70094727 -105.6946582 31.13407227 -106.15551758 31.58032227 C-111.11162455 36.14543573 -111.11162455 36.14543573 -114.61254883 36.76782227 C-116.80004883 36.26782227 -116.80004883 36.26782227 -118.80004883 34.26782227 C-118.92504883 30.64282227 -118.92504883 30.64282227 -118.80004883 27.26782227 C-118.01629883 27.02032227 -117.23254883 26.77282227 -116.42504883 26.51782227 C-113.69019125 25.58031914 -113.69019125 25.58031914 -113.08911133 23.48266602 C-111.08003665 20.03071043 -107.94254925 18.55656771 -104.55004883 16.58032227 C-103.89391602 16.17749023 -103.2377832 15.7746582 -102.56176758 15.35961914 C-98.59602074 13.00618886 -95.42376314 11.89024535 -90.80004883 11.26782227 C-90.14004883 10.60782227 -89.48004883 9.94782227 -88.80004883 9.26782227 C-87.81004883 8.93782227 -86.82004883 8.60782227 -85.80004883 8.26782227 C-83.57265181 7.2058049 -83.57265181 7.2058049 -80.80004883 5.26782227 C-78.37426758 4.74047852 -78.37426758 4.74047852 -75.48754883 4.33032227 C-71.01263852 3.6505213 -66.64473159 2.79719946 -62.23754883 1.76782227 C-41.58384201 -2.70336481 -20.87885289 -2.57545837 0 0 Z " fill="#400A15" transform="translate(154.800048828125,104.732177734375)"/>
<path d="M0 0 C5.87491929 0.29374596 8.52441036 1.0216981 13 5 C14.33076989 5.34342449 15.66431979 5.67619874 17 6 C22.74647887 9.49295775 22.74647887 9.49295775 24 12 C24.99 12.33 25.98 12.66 27 13 C27.33 13.66 27.66 14.32 28 15 C28.639375 15.28875 29.27875 15.5775 29.9375 15.875 C32 17 32 17 32.875 18.8125 C34.79413792 22.54415707 38.26190046 25.13095023 42 27 C42.13792969 27.57234375 42.27585938 28.1446875 42.41796875 28.734375 C43.17312686 31.67391665 44.65545865 33.70943981 46.3125 36.25 C52.43959835 46.55008098 55.81435567 59.16635582 53.375 71.04296875 C51.4540598 78.35797765 48.50836457 83.75837276 43.8046875 89.66015625 C41.96993651 91.86773654 41.96993651 91.86773654 40.984375 94.140625 C39.10642916 97.68785603 35.54268737 99.35006652 32 101 C29.28133254 101.64350111 26.81312711 101.81553265 24 102 C22.84408576 102.25109764 22.84408576 102.25109764 21.66481972 102.50726795 C18.57767681 103.07808865 15.69053492 103.12906196 12.55038452 103.13371277 C11.24679993 103.13797775 9.94321533 103.14224274 8.60012817 103.14663696 C7.16229245 103.14628747 5.72445675 103.14582595 4.28662109 103.14526367 C2.76680417 103.14825713 1.24698802 103.15166009 -0.27282715 103.15544128 C-4.39710913 103.16426921 -8.52137036 103.16661897 -12.64566088 103.16725707 C-15.22592795 103.16796858 -17.80618977 103.17010486 -20.38645554 103.17275429 C-29.3987537 103.18200566 -38.41103709 103.18608968 -47.42333984 103.18530273 C-55.80577768 103.18470289 -64.18815098 103.19523699 -72.5705725 103.2110464 C-79.78013047 103.22415601 -86.98966744 103.22948516 -94.19923723 103.22884732 C-98.49925847 103.22859322 -102.79922241 103.23139534 -107.09923172 103.24202538 C-111.14907598 103.25176337 -115.19880885 103.25174677 -119.24865723 103.24450874 C-120.72759541 103.24346976 -122.20654073 103.24578459 -123.68546677 103.2518692 C-133.88532357 103.29108425 -144.48663225 103.14685261 -154 99 C-154.66 98.01 -155.32 97.02 -156 96 C-156.99 95.67 -157.98 95.34 -159 95 C-159.7154341 93.69218646 -160.37469962 92.35322639 -161 91 C-162.11283124 89.51165674 -163.239054 88.03327725 -164.375 86.5625 C-170.74446685 77.56014288 -173.13810144 67.64691296 -171.52734375 56.82421875 C-169.74807783 47.07554617 -166.80769705 36.66089245 -159 30 C-155.98188578 30.17753613 -155.16264785 30.83735215 -153 33 C-153.3368482 37.02842947 -154.91739661 39.9274886 -156.9375 43.375 C-161.80066497 52.13336185 -163.54274197 60.61285596 -161.46484375 70.5625 C-158.61707527 79.77495321 -153.13385064 86.02236663 -144.875 90.8125 C-140.06908978 92.79754987 -135.71867999 93.12685261 -130.5436554 93.14044189 C-129.23862564 93.14615204 -127.93359589 93.15186218 -126.58901978 93.15774536 C-125.14959726 93.15899058 -123.71017464 93.16011571 -122.27075195 93.16113281 C-120.74931214 93.16576406 -119.22787348 93.17078913 -117.70643616 93.17617798 C-113.57809372 93.18927573 -109.44976752 93.19574198 -105.32140756 93.20018864 C-102.73913815 93.20312403 -100.15687313 93.20722974 -97.57460594 93.21169281 C-89.48654047 93.22536176 -81.39848511 93.23503097 -73.31040889 93.2388947 C-63.99040161 93.24337201 -54.67054123 93.26090719 -45.35057861 93.2898953 C-38.13594081 93.31155204 -30.92134422 93.32160113 -23.70667428 93.32293582 C-19.40273807 93.32398113 -15.09894006 93.32983015 -10.79503822 93.34775543 C-6.74269744 93.364305 -2.69059775 93.36635846 1.36176491 93.35761642 C2.84274061 93.35684968 4.32372965 93.36114056 5.80467224 93.37107468 C18.30072975 93.44993022 27.61549459 92.54935489 36.79296875 83.57421875 C42.99555585 76.3396968 44.86288925 69.00150731 44.48046875 59.5546875 C43.00899 48.66813742 37.65927731 38.49957989 29.78515625 30.84765625 C28 29 28 29 28 27 C27.41734375 26.73574219 26.8346875 26.47148437 26.234375 26.19921875 C23.92587975 24.96021868 22.2218067 23.52764591 20.25 21.8125 C17.34839996 19.60534598 15.60955569 18.55246892 11.9375 18.9375 C6.83690294 20.06204108 2.34675452 22.10216366 -2 25 C-4.5625 25.25 -4.5625 25.25 -7 25 C-7.99 24.01 -7.99 24.01 -9 23 C-8.8984375 20.55078125 -8.8984375 20.55078125 -8 18 C-6.0390625 16.41796875 -6.0390625 16.41796875 -3.625 15.1875 C-2.83351562 14.76855469 -2.04203125 14.34960938 -1.2265625 13.91796875 C1 13 1 13 4 13 C4 12.34 4 11.68 4 11 C2.35 10.67 0.7 10.34 -1 10 C-1 9.01 -1 8.02 -1 7 C-0.34 7 0.32 7 1 7 C1 5.35 1 3.7 1 2 C0.01 1.505 0.01 1.505 -1 1 C-0.67 0.67 -0.34 0.34 0 0 Z " fill="#3F0917" transform="translate(187,114)"/>
<path d="M0 0 C0.33 0 0.66 0 1 0 C1 3.63 1 7.26 1 11 C1.66 11 2.32 11 3 11 C4.38232443 12.62626404 5.71937515 14.2925002 7 16 C7.66 15.34 8.32 14.68 9 14 C14.0551733 14.29164461 17.57482218 15.65194646 22 18 C29.35072291 21.51069152 36.2550206 21.43938641 44.2878418 21.41992188 C45.72604528 21.4272718 47.16424288 21.43586071 48.60243225 21.44558716 C52.49118981 21.46772071 56.37973493 21.47073777 60.26854682 21.46883965 C63.5260071 21.46871951 66.78342309 21.47730172 70.04087096 21.48561716 C77.73455306 21.50482385 85.42812668 21.50774588 93.12182617 21.50097656 C101.03013622 21.49434565 108.93797869 21.51716789 116.84619397 21.55429029 C123.65926805 21.58509875 130.47219264 21.59633508 137.28533489 21.59245348 C141.34404493 21.59039655 145.40239137 21.59569939 149.46103477 21.62034607 C153.28378371 21.64279459 157.10577956 21.64058762 160.92853355 21.62041855 C162.32117308 21.61703958 163.71386511 21.62196119 165.10643387 21.63640213 C174.61370773 21.72808639 182.45096261 20.30997955 191 16 C191.66 15.34 192.32 14.68 193 14 C195.55122439 13.8599671 198.03862096 14.00476564 200.58984375 14.125 C203.26544089 14.19199403 203.26544089 14.19199403 206 12 C206.92790397 14.52273893 207.08450301 15.73724844 206.25 18.33203125 C201.47360486 27.81019035 196.15393341 33.50899886 186 37 C182.51690671 38.07690895 179.29422357 38.13090993 175.65718079 38.14044189 C173.69953041 38.14900711 173.69953041 38.14900711 171.70233154 38.15774536 C170.25769053 38.15899066 168.8130494 38.16011577 167.3684082 38.16113281 C165.84549337 38.16576271 164.32257969 38.1707876 162.79966736 38.17617798 C158.66306865 38.18928927 154.52648617 38.1957447 150.38986993 38.20018864 C147.80342596 38.203122 145.21698641 38.20722736 142.63054466 38.21169281 C134.53233305 38.22536569 126.43413154 38.23503282 118.33590919 38.2388947 C108.99890183 38.24337216 99.6620411 38.26090638 90.32507831 38.2898953 C83.10113455 38.3115423 75.87723195 38.32160063 68.65325612 38.32293582 C64.34207118 38.32398188 60.03102412 38.32984694 55.71987343 38.34775543 C51.66098289 38.36428794 47.60233309 38.36636664 43.54342079 38.35761642 C42.05880079 38.35684876 40.57416758 38.36115292 39.08958054 38.37107468 C28.46183876 38.43790038 19.5284467 37.85983756 11 31 C4.54461832 24.51685324 0.1965916 18.26734007 -0.09765625 8.88671875 C-0.08605469 7.83097656 -0.07445313 6.77523437 -0.0625 5.6875 C-0.05347656 4.61886719 -0.04445313 3.55023438 -0.03515625 2.44921875 C-0.02355469 1.64097656 -0.01195313 0.83273438 0 0 Z " fill="#FAA529" transform="translate(24,170)"/>
<path d="M0 0 C5.04587967 0.39575527 8.56565759 1.64708362 13 4 C20.33707542 7.49881104 27.2231217 7.4458592 35.24023438 7.43579102 C36.67357158 7.44478075 38.10690157 7.45499177 39.54022217 7.46632385 C43.41677142 7.49271637 47.2931217 7.49985307 51.16975212 7.50177121 C53.59950166 7.50391132 56.02920147 7.5103307 58.4589386 7.51826286 C66.95833514 7.54598917 75.45759099 7.55827284 83.95703125 7.5559082 C91.84149497 7.55411044 99.7253399 7.58568329 107.60964727 7.63313919 C114.40748367 7.67257628 121.20511971 7.68845097 128.0030694 7.68654197 C132.05021609 7.68578264 136.09681331 7.69401813 140.1438446 7.72607613 C161.76865028 8.32954928 161.76865028 8.32954928 182.19494629 2.1905365 C185.35422966 0.84965588 186.7825611 0.96269164 190 2 C190.33 3.32 190.66 4.64 191 6 C190.34 6 189.68 6 189 6 C189 6.66 189 7.32 189 8 C187.02 8.66 185.04 9.32 183 10 C183 10.66 183 11.32 183 12 C173.26988376 16.76154624 163.00948495 16.16039325 152.38330078 16.19287109 C150.92200534 16.20078786 149.46071178 16.20905773 147.99942017 16.21765137 C143.23140276 16.24367298 138.4633774 16.25915138 133.6953125 16.2734375 C132.04591748 16.27880393 130.39652249 16.28418145 128.74712753 16.28956985 C121.88410512 16.31116262 115.02108488 16.32989802 108.15803719 16.34119225 C98.35886897 16.35743237 88.56009695 16.39065299 78.761078 16.44759309 C71.84867999 16.48637847 64.93638762 16.50583462 58.0238837 16.51111281 C53.90485194 16.51475229 49.78624472 16.52662461 45.6673317 16.55921555 C41.79127961 16.58945146 37.91590569 16.59555355 34.03976059 16.58383179 C32.62529715 16.58361239 31.21080071 16.59180518 29.79644775 16.60948563 C20.65976594 16.71739878 13.9831859 15.50471235 6 11 C5.35192446 10.66954367 4.70384892 10.33908733 4.03613472 9.99861717 C0.95408552 8.26175673 0.07408822 7.25189995 -0.9375 3.8125 C-0.958125 2.884375 -0.97875 1.95625 -1 1 C-0.67 0.67 -0.34 0.34 0 0 Z " fill="#FD8D28" transform="translate(33,184)"/>
<path d="M0 0 C0.66 0.33 1.32 0.66 2 1 C0.57298525 4.25967835 -1.19448734 6.35749802 -3.6875 8.875 C-11.14196921 17.08985223 -16.72537562 28.31051735 -17.125 39.5 C-17.063125 40.7375 -17.063125 40.7375 -17 42 C-15.35 42.33 -13.7 42.66 -12 43 C-11.70867187 41.96101563 -11.41734375 40.92203125 -11.1171875 39.8515625 C-7.22654584 26.4214288 -1.75238969 17.18582923 8 7 C8.66 7.33 9.32 7.66 10 8 C7.69 10.64 5.38 13.28 3 16 C3.99 16.33 4.98 16.66 6 17 C6.57237618 20.66320753 5.81799031 22.47854874 3.75 25.375 C0.39039856 30.32449733 -0.63592301 35.76298905 -1.91015625 41.51171875 C-3.29213756 45.93504962 -5.10318725 48.73045008 -8.97265625 51.3203125 C-12.69669855 52.56883535 -16.24807354 51.94299756 -20 51 C-22.81992717 49.17879704 -24.50345478 47.99309044 -26 45 C-27.49314987 31.56165119 -22.33288988 18.02760689 -14.05859375 7.5390625 C-12.41432375 5.64566069 -10.74433275 3.80110097 -9 2 C-8.01 2.33 -7.02 2.66 -6 3 C-6 3.66 -6 4.32 -6 5 C-5.34 5 -4.68 5 -4 5 C-4 4.34 -4 3.68 -4 3 C-2.68 3 -1.36 3 0 3 C0 2.01 0 1.02 0 0 Z " fill="#470E13" transform="translate(127,112)"/>
<path d="M0 0 C0.66 0.33 1.32 0.66 2 1 C1.67 2.65 1.34 4.3 1 6 C1.66 6.33 2.32 6.66 3 7 C3.33 6.01 3.66 5.02 4 4 C5.32 4.33 6.64 4.66 8 5 C7.43152344 5.49886719 6.86304688 5.99773437 6.27734375 6.51171875 C-2.15289067 14.35085159 -8.59532806 23.45484134 -9.02734375 35.26953125 C-9.01380859 36.12611328 -9.01380859 36.12611328 -9 37 C-7.35 37.33 -5.7 37.66 -4 38 C-3.81824219 37.41992188 -3.63648438 36.83984375 -3.44921875 36.2421875 C-0.35294118 26.6199095 -0.35294118 26.6199095 2 23 C4.5625 22 4.5625 22 7 22 C9 24 9 24 9.3125 26.125 C8.61385971 32.55249069 5.60808569 39.84856312 1.5 44.8125 C-1.98452155 47.57107956 -5.76366844 47.35901115 -10 47 C-14.02845558 44.87175932 -16.3077977 43.2151221 -18 39 C-19.87028837 28.13264019 -14.18062041 18.22507561 -8.625 9.26953125 C-6.12601521 5.77936259 -3.19388864 2.85371115 0 0 Z " fill="#490E12" transform="translate(167,121)"/>
<path d="M0 0 C0.99 0.33 1.98 0.66 3 1 C4.0625 3.3125 4.0625 3.3125 5 6 C5.34160156 6.62648438 5.68320313 7.25296875 6.03515625 7.8984375 C7.70040816 11.52558538 7.5530767 15.09554185 7 19 C5.92525878 21.64122724 4.62384006 23.61199991 3 26 C0.64273493 28.87002722 0.64273493 28.87002722 1.25 32.375 C1.89373922 35.48640622 2.69055843 38.11922854 4 41 C1.4041044 43.87402727 -0.21369298 45.24432948 -4 46 C-7.63240864 39.78598665 -10.50564841 34.31121165 -9 27 C-7.90417281 24.37511162 -6.61951957 22.38164643 -5 20 C-2.64273493 17.12997278 -2.64273493 17.12997278 -3.25 13.625 C-3.89373922 10.51359378 -4.69055843 7.88077146 -6 5 C-2.25 1.125 -2.25 1.125 0 0 Z " fill="#FCBE45" transform="translate(173,49)"/>
<path d="M0 0 C0.99 0.33 1.98 0.66 3 1 C4.0625 3.3125 4.0625 3.3125 5 6 C5.34160156 6.62648438 5.68320313 7.25296875 6.03515625 7.8984375 C7.70040816 11.52558538 7.5530767 15.09554185 7 19 C5.92525878 21.64122724 4.62384006 23.61199991 3 26 C0.64273493 28.87002722 0.64273493 28.87002722 1.25 32.375 C1.89373922 35.48640622 2.69055843 38.11922854 4 41 C1.4041044 43.87402727 -0.21369298 45.24432948 -4 46 C-7.63240864 39.78598665 -10.50564841 34.31121165 -9 27 C-7.90417281 24.37511162 -6.61951957 22.38164643 -5 20 C-2.64273493 17.12997278 -2.64273493 17.12997278 -3.25 13.625 C-3.89373922 10.51359378 -4.69055843 7.88077146 -6 5 C-2.25 1.125 -2.25 1.125 0 0 Z " fill="#FCBD44" transform="translate(85,53)"/>
<path d="M0 0 C0.99 0.33 1.98 0.66 3 1 C4.0625 3.3125 4.0625 3.3125 5 6 C5.34160156 6.62648438 5.68320313 7.25296875 6.03515625 7.8984375 C7.70040816 11.52558538 7.5530767 15.09554185 7 19 C5.92525878 21.64122724 4.62384006 23.61199991 3 26 C0.64273493 28.87002722 0.64273493 28.87002722 1.25 32.375 C1.89373922 35.48640622 2.69055843 38.11922854 4 41 C1.4041044 43.87402727 -0.21369298 45.24432948 -4 46 C-7.63240864 39.78598665 -10.50564841 34.31121165 -9 27 C-7.90417281 24.37511162 -6.61951957 22.38164643 -5 20 C-2.64273493 17.12997278 -2.64273493 17.12997278 -3.25 13.625 C-3.89373922 10.51359378 -4.69055843 7.88077146 -6 5 C-2.25 1.125 -2.25 1.125 0 0 Z " fill="#FCBE45" transform="translate(129,37)"/>
<path d="M0 0 C2.25 0.546875 2.25 0.546875 4.25 2.546875 C3.53714844 3.0315625 2.82429688 3.51625 2.08984375 4.015625 C-12.26415401 14.06149153 -20.06712841 26.36014091 -23.75 43.546875 C-26.125 44.171875 -26.125 44.171875 -28.75 44.546875 C-30.75 42.546875 -30.75 42.546875 -30.8671875 40.55078125 C-29.37684788 25.52719642 -22.25554356 12.84901915 -11.453125 2.39453125 C-7.590496 -0.24567614 -4.57335665 -0.33780475 0 0 Z " fill="#F58A30" transform="translate(139.75,111.453125)"/>
<path d="M0 0 C1.68375165 0.62225605 3.35767228 1.27544365 5 2 C5 2.66 5 3.32 5 4 C3.56328432 4.64757625 2.12559584 5.29299453 0.6875 5.9375 C-0.11300781 6.29714844 -0.91351563 6.65679687 -1.73828125 7.02734375 C-4 8 -4 8 -7 9 C-7.33 11.64 -7.66 14.28 -8 17 C-8.66 17 -9.32 17 -10 17 C-10.66 18.32 -11.32 19.64 -12 21 C-13.65 21 -15.3 21 -17 21 C-17.19335938 21.58007812 -17.38671875 22.16015625 -17.5859375 22.7578125 C-19.05729167 27.171875 -20.52864583 31.5859375 -22 36 C-24.375 36.625 -24.375 36.625 -27 37 C-29 35 -29 35 -29.22265625 33.07421875 C-28.42148569 21.13482327 -21.82958586 12.10129503 -13.4296875 4.0234375 C-8.68327155 0.07063451 -6.14533907 -1.66436266 0 0 Z " fill="#F78931" transform="translate(186,123)"/>
<path d="M0 0 C-0.37511719 0.51046875 -0.75023438 1.0209375 -1.13671875 1.546875 C-7.28275689 10.27827427 -10.79527061 19.87980191 -14 30 C-15.66611905 30.042721 -17.33382885 30.04063832 -19 30 C-20 29 -20 29 -20.375 25.25 C-20.314073 17.65849576 -17.17863111 8.64257627 -12 3 C-9.84375 1.69921875 -9.84375 1.69921875 -7.5 0.6875 C-6.7265625 0.34074219 -5.953125 -0.00601563 -5.15625 -0.36328125 C-3 -1 -3 -1 0 0 Z " fill="#F28832" transform="translate(77,122)"/>
<path d="M0 0 C1.66015625 0.74869792 3.3203125 1.49739583 4.98046875 2.24609375 C9.44351536 3.91218271 13.73012633 4.12671895 18.46307373 4.13371277 C19.76954865 4.13797775 21.07602356 4.14224274 22.42208862 4.14663696 C23.86309817 4.14628747 25.3041077 4.14582596 26.74511719 4.14526367 C28.26817914 4.14825707 29.79124034 4.15166002 31.31430054 4.15544128 C35.44671243 4.16426833 39.5791036 4.16661889 43.71152401 4.16725707 C46.29579572 4.16796845 48.88006218 4.17010448 51.46433258 4.17275429 C60.48729282 4.18200431 69.5102383 4.18608971 78.53320312 4.18530273 C86.93158572 4.18470244 95.32990397 4.19524573 103.72827029 4.2110464 C110.947988 4.22414339 118.16768473 4.22948571 125.38741422 4.22884732 C129.69519643 4.22859292 134.00292149 4.23141224 138.31069183 4.24202538 C142.36545452 4.25174242 146.42010586 4.25176092 150.47487259 4.24450874 C151.95787596 4.24346729 153.4408864 4.24579956 154.92387772 4.2518692 C162.5951374 4.28121699 169.58810411 4.05843118 177 2 C175.90705109 3.96867466 175.90705109 3.96867466 174 6 C171.10033417 6.50057125 171.10033417 6.50057125 167.48718262 6.50120544 C166.82267798 6.50673984 166.15817334 6.51227424 165.4735322 6.51797634 C163.24174252 6.53161409 161.01106526 6.51659764 158.77929688 6.50170898 C157.18095422 6.50549135 155.58261484 6.51099071 153.98428345 6.51808167 C149.63661507 6.53207348 145.28934086 6.52083653 140.94169426 6.50437045 C136.38776203 6.49052825 131.8338529 6.49697981 127.27990723 6.50050354 C119.62306368 6.50320852 111.96637661 6.48971291 104.30957031 6.46655273 C95.47610067 6.44001709 86.64289394 6.43817063 77.80939817 6.4499411 C69.30112589 6.46075479 60.79294806 6.45449881 52.28468323 6.44038582 C48.67092131 6.43464941 45.05722906 6.43469036 41.44346619 6.43945122 C37.17524507 6.44425459 32.90730823 6.43398146 28.63914108 6.41249657 C27.07958815 6.40697116 25.52000766 6.40642394 23.96045303 6.41144943 C15.23659007 6.43601651 7.30582261 5.90649826 -1 3 C-0.67 2.01 -0.34 1.02 0 0 Z " fill="#521400" transform="translate(38,203)"/>
<path d="M0 0 C2 0.25 2 0.25 4 1 C4.33 1.99 4.66 2.98 5 4 C3.625 5.5 3.625 5.5 2 7 C1.34 7 0.68 7 0 7 C0.33 8.32 0.66 9.64 1 11 C1.66 11 2.32 11 3 11 C3 10.34 3 9.68 3 9 C4.32 9.33 5.64 9.66 7 10 C6.59007813 10.58007812 6.18015625 11.16015625 5.7578125 11.7578125 C2.78971393 16.06084535 0.31573874 19.8686189 -1 25 C-2.125 21.25 -2.125 21.25 -1 19 C-1.66 19 -2.32 19 -3 19 C-3.33 18.34 -3.66 17.68 -4 17 C-4.66 17 -5.32 17 -6 17 C-5.979375 17.804375 -5.95875 18.60875 -5.9375 19.4375 C-6 22 -6 22 -7 23 C-7.24179404 25.28808802 -7.38336599 27.57465815 -7.5234375 29.87109375 C-8 32 -8 32 -11 34 C-13.33199388 34.07905064 -15.66832622 34.08798769 -18 34 C-17.67 33.34 -17.34 32.68 -17 32 C-15.35 32 -13.7 32 -12 32 C-11.69707031 30.94941406 -11.39414062 29.89882812 -11.08203125 28.81640625 C-8.25153641 19.24153331 -5.12553501 11.002144 1 3 C0.34 2.34 -0.32 1.68 -1 1 C-0.67 0.67 -0.34 0.34 0 0 Z " fill="#4C0F0E" transform="translate(75,119)"/>
<path d="M0 0 C51.48 0 102.96 0 156 0 C156 0.33 156 0.66 156 1 C104.52 1 53.04 1 0 1 C0 0.67 0 0.34 0 0 Z " fill="#0E0003" transform="translate(50,218)"/>
<path d="M0 0 C2.86708654 0.68810077 5.43173466 1.5617947 8.125 2.75 C8.125 3.41 8.125 4.07 8.125 4.75 C6.68828432 5.39757625 5.25059584 6.04299453 3.8125 6.6875 C3.01199219 7.04714844 2.21148437 7.40679687 1.38671875 7.77734375 C-0.875 8.75 -0.875 8.75 -3.875 9.75 C-4.205 10.41 -4.535 11.07 -4.875 11.75 C-5.205 9.77 -5.535 7.79 -5.875 5.75 C-7.525 6.08 -9.175 6.41 -10.875 6.75 C-3.96677215 -0.34493671 -3.96677215 -0.34493671 0 0 Z " fill="#ED8633" transform="translate(182.875,122.25)"/>
<path d="M0 0 C1.12890625 1.6875 1.12890625 1.6875 2 4 C0.27752702 9.80985481 -2.82570885 14.74758842 -8 18 C-8 15 -8 15 -6.5 13.3125 C-6.005 12.879375 -5.51 12.44625 -5 12 C-5.99 11.67 -6.98 11.34 -8 11 C-7.67 10.01 -7.34 9.02 -7 8 C-6.34 8 -5.68 8 -5 8 C-5.66 6.68 -6.32 5.36 -7 4 C-8.98 4 -10.96 4 -13 4 C-12.67 3.34 -12.34 2.68 -12 2 C-11.30132812 2.02320313 -10.60265625 2.04640625 -9.8828125 2.0703125 C-8.51769531 2.09738281 -8.51769531 2.09738281 -7.125 2.125 C-6.22007812 2.14820313 -5.31515625 2.17140625 -4.3828125 2.1953125 C-1.81193006 2.24324836 -1.81193006 2.24324836 0 0 Z " fill="#F9A72B" transform="translate(229,182)"/>
<path d="M0 0 C0.33 0 0.66 0 1 0 C1 3.63 1 7.26 1 11 C1.66 11 2.32 11 3 11 C5.1875 13.125 5.1875 13.125 7 16 C6.75 19.3125 6.75 19.3125 6 22 C6.598125 22.20625 7.19625 22.4125 7.8125 22.625 C10.81319776 24.51115288 11.48284486 26.83926013 13 30 C15.06167261 32.31418291 15.06167261 32.31418291 17 34 C11.07930036 32.38526373 6.90507447 28.02065862 3.69921875 22.9375 C0.70372624 17.18615438 -0.13387639 12.18275107 -0.0625 5.6875 C-0.05347656 4.61886719 -0.04445313 3.55023438 -0.03515625 2.44921875 C-0.02355469 1.64097656 -0.01195313 0.83273438 0 0 Z " fill="#EEA63B" transform="translate(24,170)"/>
<path d="M0 0 C2.42578125 0.40625 2.42578125 0.40625 4.42578125 2.40625 C-1.01921875 6.36625 -1.01921875 6.36625 -6.57421875 10.40625 C-6.90421875 9.08625 -7.23421875 7.76625 -7.57421875 6.40625 C-7.24421875 6.07625 -6.91421875 5.74625 -6.57421875 5.40625 C-8.88421875 5.73625 -11.19421875 6.06625 -13.57421875 6.40625 C-9.84965501 0.24145484 -7.06806198 -0.22954464 0 0 Z " fill="#F38A3A" transform="translate(139.57421875,111.59375)"/>
<path d="M0 0 C0.66 0.33 1.32 0.66 2 1 C-0.31 3.64 -2.62 6.28 -5 9 C-4.01 9.33 -3.02 9.66 -2 10 C-1.63076923 14.55384615 -1.63076923 14.55384615 -3.5 16.8125 C-3.995 17.204375 -4.49 17.59625 -5 18 C-5.33 16.68 -5.66 15.36 -6 14 C-9.49873271 15.39655297 -10.70891831 16.71260484 -12.25 20.125 C-12.58515625 20.84945312 -12.9203125 21.57390625 -13.265625 22.3203125 C-13.50796875 22.87460938 -13.7503125 23.42890625 -14 24 C-14.66 24 -15.32 24 -16 24 C-13.11160029 14.40487706 -7.43651315 6.62279135 0 0 Z " fill="#4E0F0B" transform="translate(135,119)"/>
<path d="M0 0 C0.66 1.32 1.32 2.64 2 4 C1.360625 4.7425 0.72125 5.485 0.0625 6.25 C-1.81262024 8.75016032 -2.46929107 10.02803001 -3 13 C-3.33 13.33 -3.66 13.66 -4 14 C-4.2165625 15.60875 -4.2165625 15.60875 -4.4375 17.25 C-4.93548898 20.56992654 -5.36854478 23.08055382 -7 26 C-9.125 26.8125 -9.125 26.8125 -11 27 C-10.3503125 25.63875 -10.3503125 25.63875 -9.6875 24.25 C-8.23231999 20.91323841 -7.41249654 17.61298442 -6.625 14.0625 C-5.31682519 8.50100817 -3.30050875 4.63855284 0 0 Z " fill="#EEB457" transform="translate(132,134)"/>
<path d="M0 0 C0.66 0.33 1.32 0.66 2 1 C1.84015625 1.70640625 1.6803125 2.4128125 1.515625 3.140625 C-0.54499685 14.5677098 1.52064019 23.61609958 8 33 C8 33.99 8 34.98 8 36 C3.16379074 32.77586049 0.71000903 27.5001332 -1 22 C-1.36220167 18.92368677 -1.33159727 15.90554645 -1.25 12.8125 C-1.24484375 12.01908203 -1.2396875 11.22566406 -1.234375 10.40820312 C-1.18532276 6.75687709 -0.98670866 3.53306955 0 0 Z " fill="#511505" transform="translate(24,164)"/>
<path d="M0 0 C-0.95545366 1.46022163 -1.91446678 2.91811468 -2.875 4.375 C-3.40867187 5.18710938 -3.94234375 5.99921875 -4.4921875 6.8359375 C-6 9 -6 9 -8 11 C-7.67 9.02 -7.34 7.04 -7 5 C-9.41736836 5.10691236 -9.41736836 5.10691236 -12 6 C-13.68257823 8.27789958 -13.68257823 8.27789958 -14.8125 11.0625 C-15.23144531 11.98160156 -15.65039062 12.90070313 -16.08203125 13.84765625 C-16.38496094 14.55792969 -16.68789063 15.26820313 -17 16 C-18 14 -18 14 -17.35546875 11.79296875 C-14.48564688 5.39105843 -11.69157602 2.54677998 -5.3046875 -0.35546875 C-3 -1 -3 -1 0 0 Z " fill="#E08442" transform="translate(77,122)"/>
<path d="M0 0 C1.125 3.75 1.125 3.75 0 6 C-0.04022391 8.3329866 -0.04320247 10.66706666 0 13 C3.0109362 10.9927092 3.63016497 10.16115776 5 7 C6 9 6 9 5.0625 12.125 C4.711875 13.07375 4.36125 14.0225 4 15 C1.625 15.625 1.625 15.625 -1 16 C-3 14 -3 14 -3.046875 11.7578125 C-2.94890625 10.88898438 -2.8509375 10.02015625 -2.75 9.125 C-2.66234375 8.26132813 -2.5746875 7.39765625 -2.484375 6.5078125 C-2.00349575 4.01809898 -1.2453726 2.194714 0 0 Z " fill="#E18241" transform="translate(160,144)"/>
<path d="M0 0 C0.33 0.66 0.66 1.32 1 2 C0.01 3.485 0.01 3.485 -1 5 C-1.28875 5.928125 -1.5775 6.85625 -1.875 7.8125 C-3.11729581 11.33233813 -4.90583685 13.92419788 -7 17 C-7.71573527 18.64619113 -8.4025696 20.30728055 -9 22 C-9.703125 20.4375 -9.703125 20.4375 -10 18 C-9.01270788 15.53757729 -7.99088915 13.32605887 -6.75 11 C-6.43675781 10.38382813 -6.12351562 9.76765625 -5.80078125 9.1328125 C-4.11125465 5.86592703 -2.31591564 2.85915511 0 0 Z " fill="#E6833E" transform="translate(121,122)"/>
<path d="M0 0 C0.66 0.33 1.32 0.66 2 1 C0.42219077 4.71045247 -1.90703248 7.29906384 -4.625 10.25 C-5.44226563 11.14203125 -6.25953125 12.0340625 -7.1015625 12.953125 C-7.72804688 13.62859375 -8.35453125 14.3040625 -9 15 C-9.33 14.34 -9.66 13.68 -10 13 C-9.67 12.01 -9.34 11.02 -9 10 C-8.34 10 -7.68 10 -7 10 C-6.67 8.35 -6.34 6.7 -6 5 C-5.34 5 -4.68 5 -4 5 C-4 4.34 -4 3.68 -4 3 C-2.68 3 -1.36 3 0 3 C0 2.01 0 1.02 0 0 Z " fill="#510A10" transform="translate(127,112)"/>
<path d="M0 0 C4.54805635 -0.17835515 7.8794254 0.00214565 12 2 C7.25 6.875 7.25 6.875 5 8 C4.67 6.35 4.34 4.7 4 3 C2.35 2.67 0.7 2.34 -1 2 C-0.67 1.34 -0.34 0.68 0 0 Z " fill="#E7B056" transform="translate(159,116)"/>
<path d="M0 0 C1.15242188 0.00902344 2.30484375 0.01804687 3.4921875 0.02734375 C4.36101562 0.03894531 5.22984375 0.05054687 6.125 0.0625 C6.125 0.7225 6.125 1.3825 6.125 2.0625 C5.53074219 2.01609375 4.93648437 1.9696875 4.32421875 1.921875 C-2.8592866 1.60906295 -8.29046759 3.33446577 -14.875 6.0625 C-15.865 6.3925 -16.855 6.7225 -17.875 7.0625 C-17.875 6.0725 -17.875 5.0825 -17.875 4.0625 C-16.555 4.0625 -15.235 4.0625 -13.875 4.0625 C-13.545 3.0725 -13.215 2.0825 -12.875 1.0625 C-8.52167264 0.22226812 -4.43057481 -0.04520995 0 0 Z " fill="#480D07" transform="translate(162.875,114.9375)"/>
<path d="M0 0 C0.66 0.66 1.32 1.32 2 2 C-2.81776765 12.74259681 -2.81776765 12.74259681 -8 16 C-8 15.01 -8 14.02 -8 13 C-7.34 12.67 -6.68 12.34 -6 12 C-5.27095914 10.35965807 -4.61344757 8.68698082 -4 7 C-2.22222222 2.22222222 -2.22222222 2.22222222 0 0 Z " fill="#F0A638" transform="translate(229,184)"/>
<path d="M0 0 C2.59500704 3.89251056 1.86590203 5.5130531 1 10 C0.69096017 11.33917261 0.37057089 12.67653254 0 14 C-0.66 14 -1.32 14 -2 14 C-3.10643764 8.16605611 -3.27137992 5.23420787 0 0 Z " fill="#FC8929" transform="translate(114,138)"/>
<path d="M0 0 C-1.25997824 3.77993473 -2.88573243 4.84898319 -6.078125 7.05859375 C-8.94714597 8.46394752 -11.03580497 7.93986672 -14 7 C-14.33 5.68 -14.66 4.36 -15 3 C-13.96875 3.2475 -12.9375 3.495 -11.875 3.75 C-6.4987461 4.09685509 -4.68750044 0 0 0 Z " fill="#EBAF55" transform="translate(193,134)"/>
<path d="M0 0 C0.33 0 0.66 0 1 0 C1 1.65 1 3.3 1 5 C0.01 5.33 -0.98 5.66 -2 6 C-2.28875 6.78375 -2.5775 7.5675 -2.875 8.375 C-4.29325322 11.68425751 -5.80007438 12.48003533 -9 14 C-9.66 14 -10.32 14 -11 14 C-11 13.34 -11 12.68 -11 12 C-9.35546875 10.44921875 -9.35546875 10.44921875 -7.1875 8.6875 C-4.04680563 6.03511147 -1.90288282 3.69383136 0 0 Z " fill="#581A09" transform="translate(228,191)"/>
<path d="M0 0 C2.43713119 2.43713119 2.2562288 3.08933794 2.265625 6.4296875 C2.26820313 7.30753906 2.27078125 8.18539062 2.2734375 9.08984375 C2.26570312 10.00894531 2.25796875 10.92804688 2.25 11.875 C2.25773438 12.78636719 2.26546875 13.69773438 2.2734375 14.63671875 C2.27085937 15.51714844 2.26828125 16.39757812 2.265625 17.3046875 C2.26336914 18.10890137 2.26111328 18.91311523 2.25878906 19.74169922 C1.97532166 22.21535341 1.23549563 23.85597954 0 26 C-0.66 26 -1.32 26 -2 26 C-1.67257813 25.04996094 -1.34515625 24.09992188 -1.0078125 23.12109375 C0.33003345 18.43863293 0.22058789 13.89704127 0.125 9.0625 C0.11146484 7.75055664 0.11146484 7.75055664 0.09765625 6.41210938 C0.0742957 4.27461936 0.03843247 2.13727214 0 0 Z " fill="#4B1006" transform="translate(231,165)"/>
<path d="M0 0 C1.25985286 3.77955857 0.64024579 6.84423452 0.0625 10.6875 C-0.03740234 11.38939453 -0.13730469 12.09128906 -0.24023438 12.81445312 C-0.48729325 14.54386527 -0.74282852 16.2720627 -1 18 C-1.33 18 -1.66 18 -2 18 C-2 14.04 -2 10.08 -2 6 C-2.99 6.33 -3.98 6.66 -5 7 C-4.60196439 4.11424181 -4.20990931 3.17810487 -1.9375 1.25 C-1.298125 0.8375 -0.65875 0.425 0 0 Z " fill="#DDA359" transform="translate(50,134)"/>
<path d="M0 0 C-4.25347222 4.86111111 -4.25347222 4.86111111 -7.6875 5.5 C-10 5 -10 5 -12 2 C-2.48648649 -1.24324324 -2.48648649 -1.24324324 0 0 Z " fill="#4B1311" transform="translate(48,136)"/>
<path d="M0 0 C2.375 0.25 2.375 0.25 5 1 C6.0625 2.8125 6.0625 2.8125 7 5 C8.29470975 6.37086915 9.62150897 7.71340837 11 9 C10.67 9.99 10.34 10.98 10 12 C8.33333333 10.33333333 6.66666667 8.66666667 5 7 C4.1028125 6.1646875 4.1028125 6.1646875 3.1875 5.3125 C2 4 2 4 2 2 C1.34 2 0.68 2 0 2 C0 1.34 0 0.68 0 0 Z " fill="#521913" transform="translate(213,139)"/>
<path d="M0 0 C0.33 0 0.66 0 1 0 C1.33 2.97 1.66 5.94 2 9 C2.99 9.33 3.98 9.66 5 10 C5 8.68 5 7.36 5 6 C5.66 6 6.32 6 7 6 C6.67 7.65 6.34 9.3 6 11 C3.625 11.625 3.625 11.625 1 12 C0.34 11.34 -0.32 10.68 -1 10 C-0.9765625 7.6171875 -0.9765625 7.6171875 -0.625 4.875 C-0.51414062 3.96492187 -0.40328125 3.05484375 -0.2890625 2.1171875 C-0.19367188 1.41851562 -0.09828125 0.71984375 0 0 Z " fill="#DE8346" transform="translate(110,144)"/>
<path d="M0 0 C0 0.66 0 1.32 0 2 C-0.66 2 -1.32 2 -2 2 C-2.20625 2.61875 -2.4125 3.2375 -2.625 3.875 C-4.54775888 6.84653645 -6.66594527 7.13024659 -10 8 C-10.66 7.34 -11.32 6.68 -12 6 C-10.37829621 4.99466333 -8.75252763 3.99588093 -7.125 3 C-5.76761719 2.1646875 -5.76761719 2.1646875 -4.3828125 1.3125 C-2 0 -2 0 0 0 Z " fill="#E7B152" transform="translate(154,118)"/>
<path d="M0 0 C0.33 0 0.66 0 1 0 C1 3.63 1 7.26 1 11 C1.66 11 2.32 11 3 11 C5.1875 13.25 5.1875 13.25 7 16 C6.75 18.3125 6.75 18.3125 6 20 C6 19.34 6 18.68 6 18 C5.01 17.67 4.02 17.34 3 17 C3 16.01 3 15.02 3 14 C2.34 14 1.68 14 1 14 C-0.38226016 11.23547967 -0.09525387 8.9538637 -0.0625 5.875 C-0.05347656 4.77929688 -0.04445313 3.68359375 -0.03515625 2.5546875 C-0.02355469 1.71164063 -0.01195313 0.86859375 0 0 Z " fill="#E39A32" transform="translate(24,170)"/>
<path d="M0 0 C1.03125 0.495 2.0625 0.99 3.125 1.5 C7.66082334 3.42955388 11.16666801 3.63768069 15.875 2 C16.57625 1.67 17.2775 1.34 18 1 C17.67 2.32 17.34 3.64 17 5 C14.89590361 5.02701408 12.79170822 5.04640223 10.6875 5.0625 C9.51574219 5.07410156 8.34398438 5.08570313 7.13671875 5.09765625 C4 5 4 5 1 4 C0.3125 1.9375 0.3125 1.9375 0 0 Z " fill="#E9AE55" transform="translate(103,160)"/>
<path d="M0 0 C0.66 0.99 1.32 1.98 2 3 C0.89847594 4.43952597 -0.2063304 5.87654071 -1.3125 7.3125 C-1.92738281 8.11300781 -2.54226562 8.91351563 -3.17578125 9.73828125 C-4.69916307 11.62701374 -6.24434407 13.33077636 -8 15 C-7.67 13.02 -7.34 11.04 -7 9 C-6.34 9 -5.68 9 -5 9 C-5.33 8.01 -5.66 7.02 -6 6 C-5.01 5.67 -4.02 5.34 -3 5 C-2.67 4.01 -2.34 3.02 -2 2 C-1.34 2 -0.68 2 0 2 C0 1.34 0 0.68 0 0 Z " fill="#F4BA59" transform="translate(162,122)"/>
<path d="M0 0 C2.9375 0.75 2.9375 0.75 4.9375 2.75 C1.9675 2.75 -1.0025 2.75 -4.0625 2.75 C-4.3925 3.74 -4.7225 4.73 -5.0625 5.75 C-7.0425 6.08 -9.0225 6.41 -11.0625 6.75 C-4.15951493 -0.33955224 -4.15951493 -0.33955224 0 0 Z " fill="#E78841" transform="translate(183.0625,122.25)"/>
<path d="M0 0 C1.79133978 -0.05391993 3.58313899 -0.09275571 5.375 -0.125 C6.37273437 -0.14820312 7.37046875 -0.17140625 8.3984375 -0.1953125 C11 0 11 0 13 2 C10.69 3.32 8.38 4.64 6 6 C6 4.68 6 3.36 6 2 C3.03 1.505 3.03 1.505 0 1 C0 0.67 0 0.34 0 0 Z " fill="#D4793C" transform="translate(131,112)"/>
<path d="M0 0 C0.33 1.65 0.66 3.3 1 5 C-1.16874252 4.49396008 -2.99967627 4.00016187 -5 3 C-5.33 3.66 -5.66 4.32 -6 5 C-6.33 4.34 -6.66 3.68 -7 3 C-4.49955934 -0.00052879 -4.2621484 0 0 0 Z " fill="#3F0A19" transform="translate(116,157)"/>
<path d="M0 0 C-0.66 1.98 -1.32 3.96 -2 6 C-3.98 5.34 -5.96 4.68 -8 4 C-8 3.34 -8 2.68 -8 2 C-4.77208445 -0.1519437 -3.71599191 -0.20086443 0 0 Z " fill="#FA8B25" transform="translate(134,116)"/>
<path d="M0 0 C-0.33 0.99 -0.66 1.98 -1 3 C-1.66 3 -2.32 3 -3 3 C-3 3.99 -3 4.98 -3 6 C-3.99 6 -4.98 6 -6 6 C-6.33 4.68 -6.66 3.36 -7 2 C-4.35261084 0.5393715 -3.10551666 0 0 0 Z " fill="#F8AB20" transform="translate(224,194)"/>
<path d="M0 0 C-0.66 1.32 -1.32 2.64 -2 4 C-2.33 3.34 -2.66 2.68 -3 2 C-6.3 2 -9.6 2 -13 2 C-13 1.67 -13 1.34 -13 1 C-8.60563789 0.14256349 -4.47427924 -0.08948558 0 0 Z " fill="#C18E53" transform="translate(119,112)"/>
<path d="M0 0 C0.66 0.66 1.32 1.32 2 2 C1.828125 4.12890625 1.828125 4.12890625 1.25 6.5625 C1.06953125 7.36816406 0.8890625 8.17382812 0.703125 9.00390625 C0 11 0 11 -2 12 C-1.44687265 7.97007218 -0.8441938 3.97977076 0 0 Z " fill="#50160A" transform="translate(71,144)"/>
<path d="M0 0 C0.33 0 0.66 0 1 0 C1.21278058 4.46839215 0.59138085 7.82262526 -1 12 C-1.66 12 -2.32 12 -3 12 C-2.49202991 7.6822542 -1.80317221 3.96697886 0 0 Z " fill="#571106" transform="translate(68,135)"/>
<path d="M0 0 C0.99 0.33 1.98 0.66 3 1 C1.35 4.63 -0.3 8.26 -2 12 C-3.15957207 8.52128379 -2.77456651 7.65780355 -1.5625 4.3125 C-1.13130859 3.10013672 -1.13130859 3.10013672 -0.69140625 1.86328125 C-0.46324219 1.24839844 -0.23507813 0.63351563 0 0 Z " fill="#4E0E05" transform="translate(113,130)"/>
<path d="M0 0 C1.051875 0.474375 2.10375 0.94875 3.1875 1.4375 C6.10175851 2.69323741 8.84746914 3.52234381 12 4 C12 4.33 12 4.66 12 5 C10.58297487 4.85769192 9.1663904 4.71099254 7.75 4.5625 C6.56664062 4.44068359 6.56664062 4.44068359 5.359375 4.31640625 C3.17635361 4.02365007 1.1226818 3.57935581 -1 3 C-0.67 2.01 -0.34 1.02 0 0 Z " fill="#5D1C08" transform="translate(38,203)"/>
<path d="M0 0 C0.66 0 1.32 0 2 0 C2 2.31 2 4.62 2 7 C1.01 7.33 0.02 7.66 -1 8 C-1.125 2.25 -1.125 2.25 0 0 Z " fill="#F88E20" transform="translate(160,148)"/>
<path d="M0 0 C0.66 0.33 1.32 0.66 2 1 C1.1875 2.9375 1.1875 2.9375 0 5 C-0.99 5.33 -1.98 5.66 -3 6 C-3.33 6.66 -3.66 7.32 -4 8 C-4.99 7.67 -5.98 7.34 -7 7 C-4.69 4.69 -2.38 2.38 0 0 Z " fill="#E4AA56" transform="translate(140,125)"/>
<path d="M0 0 C6.0546875 -0.1953125 6.0546875 -0.1953125 8 0 C8.66 0.66 9.32 1.32 10 2 C9.01 2.66 8.02 3.32 7 4 C6.34 3.34 5.68 2.68 5 2 C1.91652174 1.83318891 1.91652174 1.83318891 -1 2 C-0.67 1.34 -0.34 0.68 0 0 Z " fill="#FCAC38" transform="translate(217,184)"/>
<path d="M0 0 C1.32 0.33 2.64 0.66 4 1 C6.08878929 4.68024779 6.06126775 5.75492899 5 10 C3.35 6.7 1.7 3.4 0 0 Z " fill="#521509" transform="translate(223,151)"/>
<path d="M0 0 C6.27 0 12.54 0 19 0 C19 0.33 19 0.66 19 1 C12.73 1 6.46 1 0 1 C0 0.67 0 0.34 0 0 Z " fill="#070001" transform="translate(119,101)"/>
<path d="M0 0 C0.66 0.33 1.32 0.66 2 1 C0.875 2.5625 0.875 2.5625 -1 4 C-4.1875 3.6875 -4.1875 3.6875 -7 3 C-4.66785852 1.79371992 -2.50357861 0.8345262 0 0 Z " fill="#5E200A" transform="translate(213,205)"/>
<path d="M0 0 C0.66 0.66 1.32 1.32 2 2 C1.34 3.98 0.68 5.96 0 8 C-0.66 8 -1.32 8 -2 8 C-1.125 1.125 -1.125 1.125 0 0 Z " fill="#F18B40" transform="translate(117,142)"/>
<path d="M0 0 C0.99 0.33 1.98 0.66 3 1 C0.06171403 3.50298434 -2.17902761 4.46930939 -6 5 C-2.25 1.125 -2.25 1.125 0 0 Z " fill="#4C0C0A" transform="translate(143,114)"/>
<path d="M0 0 C3.63 0 7.26 0 11 0 C11 0.33 11 0.66 11 1 C7.37 1 3.74 1 0 1 C0 0.67 0 0.34 0 0 Z " fill="#2D0305" transform="translate(138,102)"/>
<path d="M0 0 C3.63 0 7.26 0 11 0 C11 0.33 11 0.66 11 1 C7.37 1 3.74 1 0 1 C0 0.67 0 0.34 0 0 Z " fill="#33060A" transform="translate(108,102)"/>
<path d="M0 0 C0.33 0 0.66 0 1 0 C1 2.97 1 5.94 1 9 C0.67 9 0.34 9 0 9 C0 6.03 0 3.06 0 0 Z " fill="#F0CA5D" transform="translate(74,80)"/>
<path d="M0 0 C0.33 0 0.66 0 1 0 C1 2.97 1 5.94 1 9 C0.67 9 0.34 9 0 9 C0 6.03 0 3.06 0 0 Z " fill="#F4CB5B" transform="translate(162,76)"/>
<path d="M0 0 C0.33 0 0.66 0 1 0 C1 2.97 1 5.94 1 9 C0.67 9 0.34 9 0 9 C0 6.03 0 3.06 0 0 Z " fill="#F2C661" transform="translate(118,64)"/>
<path d="M0 0 C0.33 0 0.66 0 1 0 C1 2.97 1 5.94 1 9 C0.67 9 0.34 9 0 9 C0 6.03 0 3.06 0 0 Z " fill="#F3C65C" transform="translate(93,63)"/>
<path d="M0 0 C0.33 0 0.66 0 1 0 C1 2.97 1 5.94 1 9 C0.67 9 0.34 9 0 9 C0 6.03 0 3.06 0 0 Z " fill="#F1C95A" transform="translate(181,59)"/>
<path d="M0 0 C0.33 0 0.66 0 1 0 C1 2.97 1 5.94 1 9 C0.67 9 0.34 9 0 9 C0 6.03 0 3.06 0 0 Z " fill="#F2C55C" transform="translate(137,47)"/>
<path d="M0 0 C0.33 0 0.66 0 1 0 C1 2.64 1 5.28 1 8 C0.67 8 0.34 8 0 8 C0 5.36 0 2.72 0 0 Z " fill="#0B0004" transform="translate(13,174)"/>
<path d="M0 0 C0.33 0 0.66 0 1 0 C1 2.64 1 5.28 1 8 C0.67 8 0.34 8 0 8 C0 5.36 0 2.72 0 0 Z " fill="#040100" transform="translate(242,173)"/>
<path d="M0 0 C2.31 0 4.62 0 7 0 C7 0.33 7 0.66 7 1 C4.69 1 2.38 1 0 1 C0 0.67 0 0.34 0 0 Z " fill="#4D0607" transform="translate(100,103)"/>
<path d="M0 0 C0.33 0 0.66 0 1 0 C1 1.98 1 3.96 1 6 C0.67 6 0.34 6 0 6 C0 4.02 0 2.04 0 0 Z " fill="#290603" transform="translate(241,167)"/>
<path d="M0 0 C0.33 0 0.66 0 1 0 C1 1.98 1 3.96 1 6 C0.67 6 0.34 6 0 6 C0 4.02 0 2.04 0 0 Z " fill="#260409" transform="translate(14,167)"/>
<path d="M0 0 C1.98 0 3.96 0 6 0 C6 0.33 6 0.66 6 1 C4.02 1 2.04 1 0 1 C0 0.67 0 0.34 0 0 Z " fill="#41090A" transform="translate(150,103)"/>
<path d="M0 0 C1.65 0 3.3 0 5 0 C5 0.33 5 0.66 5 1 C3.35 1 1.7 1 0 1 C0 0.67 0 0.34 0 0 Z " fill="#140105" transform="translate(206,217)"/>
<path d="M0 0 C1.65 0 3.3 0 5 0 C5 0.33 5 0.66 5 1 C3.35 1 1.7 1 0 1 C0 0.67 0 0.34 0 0 Z " fill="#150006" transform="translate(45,217)"/>
<path d="M0 0 C0.33 0 0.66 0 1 0 C1 1.65 1 3.3 1 5 C0.67 5 0.34 5 0 5 C0 3.35 0 1.7 0 0 Z " fill="#2B050E" transform="translate(241,182)"/>
<path d="M0 0 C0.33 0 0.66 0 1 0 C1 1.65 1 3.3 1 5 C0.67 5 0.34 5 0 5 C0 3.35 0 1.7 0 0 Z " fill="#2D060E" transform="translate(14,182)"/>
<path d="M0 0 C1.65 0 3.3 0 5 0 C5 0.33 5 0.66 5 1 C3.35 1 1.7 1 0 1 C0 0.67 0 0.34 0 0 Z " fill="#3F0511" transform="translate(95,104)"/>
<path d="M0 0 C0.33 0 0.66 0 1 0 C1 1.65 1 3.3 1 5 C0.67 5 0.34 5 0 5 C0 3.35 0 1.7 0 0 Z " fill="#F0CF46" transform="translate(86,82)"/>
<path d="M0 0 C0.33 0 0.66 0 1 0 C1 1.65 1 3.3 1 5 C0.67 5 0.34 5 0 5 C0 3.35 0 1.7 0 0 Z " fill="#F9C948" transform="translate(174,78)"/>
<path d="M0 0 C0.33 0 0.66 0 1 0 C1 1.65 1 3.3 1 5 C0.67 5 0.34 5 0 5 C0 3.35 0 1.7 0 0 Z " fill="#FECB3F" transform="translate(130,66)"/>
<path d="M0 0 C0.33 0 0.66 0 1 0 C1 1.65 1 3.3 1 5 C0.67 5 0.34 5 0 5 C0 3.35 0 1.7 0 0 Z " fill="#FDCD3D" transform="translate(81,65)"/>
<path d="M0 0 C0.33 0 0.66 0 1 0 C1 1.65 1 3.3 1 5 C0.67 5 0.34 5 0 5 C0 3.35 0 1.7 0 0 Z " fill="#FCC946" transform="translate(169,61)"/>
<path d="M0 0 C0.33 0 0.66 0 1 0 C1 1.65 1 3.3 1 5 C0.67 5 0.34 5 0 5 C0 3.35 0 1.7 0 0 Z " fill="#F4CF3A" transform="translate(125,49)"/>
<path d="M0 0 C1 4 1 4 1 4 Z " fill="#2A000A" transform="translate(240,163)"/>
<path d="M0 0 C1 4 1 4 1 4 Z " fill="#430A0E" transform="translate(15,163)"/>
<path d="M0 0 C1 4 1 4 1 4 Z " fill="#3A0405" transform="translate(34,135)"/>
<path d="M0 0 C4 1 4 1 4 1 Z " fill="#2A0007" transform="translate(162,105)"/>
<path d="M0 0 C4 1 4 1 4 1 Z " fill="#25030A" transform="translate(91,105)"/>
<path d="M0 0 C4 1 4 1 4 1 Z " fill="#26030A" transform="translate(157,104)"/>
<path d="M0 0 C3 1 3 1 3 1 Z " fill="#1D0005" transform="translate(211,216)"/>
<path d="M0 0 C3 1 3 1 3 1 Z " fill="#23010A" transform="translate(42,216)"/>
<path d="M0 0 C3 1 3 1 3 1 Z " fill="#57101C" transform="translate(214,215)"/>
<path d="M0 0 C3 1 3 1 3 1 Z " fill="#210004" transform="translate(39,215)"/>
<path d="" fill="#2B0308" transform="translate(0,0)"/>
<path d="" fill="#200006" transform="translate(0,0)"/>
<path d="" fill="#1F0002" transform="translate(0,0)"/>
<path d="" fill="#330C15" transform="translate(0,0)"/>
<path d="" fill="#2E0A10" transform="translate(0,0)"/>
<path d="" fill="#200404" transform="translate(0,0)"/>
<path d="M0 0 C0.99 0.495 0.99 0.495 2 1 C1.01 1.495 1.01 1.495 0 2 C0 1.34 0 0.68 0 0 Z " fill="#4D1316" transform="translate(26,143)"/>
<path d="M0 0 C3 1 3 1 3 1 Z " fill="#130000" transform="translate(28,142)"/>
<path d="M0 0 C3 1 3 1 3 1 Z " fill="#380608" transform="translate(174,108)"/>
<path d="M0 0 C3 1 3 1 3 1 Z " fill="#38020B" transform="translate(80,108)"/>
<path d="M0 0 C3 1 3 1 3 1 Z " fill="#340511" transform="translate(83,107)"/>
<path d="M0 0 C3 1 3 1 3 1 Z " fill="#190808" transform="translate(87,106)"/>
<path d="" fill="#FDF53B" transform="translate(0,0)"/>
<path d="" fill="#FDF337" transform="translate(0,0)"/>
<path d="" fill="#FFED3A" transform="translate(0,0)"/>
<path d="" fill="#FEF02F" transform="translate(0,0)"/>
<path d="" fill="#FFF344" transform="translate(0,0)"/>
<path d="" fill="#FFF132" transform="translate(0,0)"/>
<path d="" fill="#FFEC32" transform="translate(0,0)"/>
<path d="" fill="#FFF638" transform="translate(0,0)"/>
<path d="" fill="#F8DD46" transform="translate(0,0)"/>
<path d="" fill="#FBDA47" transform="translate(0,0)"/>
<path d="" fill="#FFF534" transform="translate(0,0)"/>
<path d="" fill="#F9DE3E" transform="translate(0,0)"/>
<path d="" fill="#110104" transform="translate(0,0)"/>
<path d="" fill="#280910" transform="translate(0,0)"/>
<path d="" fill="#140002" transform="translate(0,0)"/>
<path d="" fill="#0C0001" transform="translate(0,0)"/>
<path d="" fill="#350A13" transform="translate(0,0)"/>
<path d="" fill="#310A13" transform="translate(0,0)"/>
<path d="" fill="#280108" transform="translate(0,0)"/>
<path d="" fill="#200006" transform="translate(0,0)"/>
<path d="" fill="#2B060B" transform="translate(0,0)"/>
<path d="" fill="#450A17" transform="translate(0,0)"/>
<path d="" fill="#4F0C17" transform="translate(0,0)"/>
<path d="" fill="#24050B" transform="translate(0,0)"/>
<path d="" fill="#190406" transform="translate(0,0)"/>
<path d="" fill="#200508" transform="translate(0,0)"/>
<path d="" fill="#3E060B" transform="translate(0,0)"/>
<path d="" fill="#150000" transform="translate(0,0)"/>
<path d="" fill="#2F090B" transform="translate(0,0)"/>
<path d="" fill="#30010B" transform="translate(0,0)"/>
<path d="M0 0 C2 1 2 1 2 1 Z " fill="#600B1C" transform="translate(200,119)"/>
<path d="M0 0 C2 1 2 1 2 1 Z " fill="#560200" transform="translate(60,116)"/>
<path d="M0 0 C2 1 2 1 2 1 Z " fill="#4D0409" transform="translate(62,115)"/>
<path d="M0 0 C2 1 2 1 2 1 Z " fill="#570311" transform="translate(64,114)"/>
<path d="M0 0 C2 1 2 1 2 1 Z " fill="#590A1C" transform="translate(188,113)"/>
<path d="M0 0 C2 1 2 1 2 1 Z " fill="#360E17" transform="translate(69,112)"/>
<path d="M0 0 C2 1 2 1 2 1 Z " fill="#4C060E" transform="translate(183,111)"/>
<path d="M0 0 C2 1 2 1 2 1 Z " fill="#FFD97C" transform="translate(83,99)"/>
<path d="M0 0 C2 1 2 1 2 1 Z " fill="#FCA654" transform="translate(85,98)"/>
<path d="M0 0 C2 1 2 1 2 1 Z " fill="#FFD67F" transform="translate(171,95)"/>
<path d="" fill="#EDBB75" transform="translate(0,0)"/>
<path d="M0 0 C2 1 2 1 2 1 Z " fill="#FBA555" transform="translate(173,94)"/>
<path d="" fill="#F4BA1F" transform="translate(0,0)"/>
<path d="" fill="#F4F74F" transform="translate(0,0)"/>
<path d="" fill="#EEC181" transform="translate(0,0)"/>
<path d="" fill="#E4C35B" transform="translate(0,0)"/>
<path d="" fill="#F5C330" transform="translate(0,0)"/>
<path d="" fill="#FFF151" transform="translate(0,0)"/>
<path d="" fill="#E9A539" transform="translate(0,0)"/>
<path d="" fill="#E4C665" transform="translate(0,0)"/>
<path d="" fill="#E5A53B" transform="translate(0,0)"/>
<path d="M0 0 C2 1 2 1 2 1 Z " fill="#FFDC7F" transform="translate(127,83)"/>
<path d="M0 0 C2 1 2 1 2 1 Z " fill="#FAA44F" transform="translate(129,82)"/>
<path d="" fill="#E9AB40" transform="translate(0,0)"/>
<path d="" fill="#E7B77A" transform="translate(0,0)"/>
<path d="" fill="#F3C01E" transform="translate(0,0)"/>
<path d="" fill="#DDA745" transform="translate(0,0)"/>
<path d="" fill="#F8F544" transform="translate(0,0)"/>
<path d="" fill="#E9B933" transform="translate(0,0)"/>
<path d="" fill="#E1C05C" transform="translate(0,0)"/>
<path d="" fill="#EBBA32" transform="translate(0,0)"/>
<path d="" fill="#E7B328" transform="translate(0,0)"/>
<path d="" fill="#E5A83F" transform="translate(0,0)"/>
<path d="" fill="#EAB331" transform="translate(0,0)"/>
<path d="" fill="#DAAA38" transform="translate(0,0)"/>
<path d="" fill="#DDA946" transform="translate(0,0)"/>
<path d="" fill="#E2AB3F" transform="translate(0,0)"/>
<path d="" fill="#DFA735" transform="translate(0,0)"/>
<path d="" fill="#E6B82B" transform="translate(0,0)"/>
<path d="" fill="#E8BF64" transform="translate(0,0)"/>
<path d="" fill="#E3AA38" transform="translate(0,0)"/>
<path d="" fill="#ECAF32" transform="translate(0,0)"/>
<path d="" fill="#FEEB45" transform="translate(0,0)"/>
<path d="" fill="#FBBE27" transform="translate(0,0)"/>
<path d="" fill="#E6C263" transform="translate(0,0)"/>
<path d="" fill="#E99470" transform="translate(0,0)"/>
<path d="" fill="#FDED48" transform="translate(0,0)"/>
<path d="" fill="#E4A437" transform="translate(0,0)"/>
<path d="" fill="#F5C02A" transform="translate(0,0)"/>
<path d="" fill="#DF9372" transform="translate(0,0)"/>
<path d="M0 0 C2 1 2 1 2 1 Z " fill="#FB9356" transform="translate(81,53)"/>
<path d="M0 0 C2 1 2 1 2 1 Z " fill="#FFCE93" transform="translate(83,52)"/>
<path d="M0 0 C2 1 2 1 2 1 Z " fill="#F69659" transform="translate(169,49)"/>
<path d="M0 0 C2 1 2 1 2 1 Z " fill="#FFD394" transform="translate(171,48)"/>
<path d="" fill="#E9A439" transform="translate(0,0)"/>
<path d="" fill="#E2BD4C" transform="translate(0,0)"/>
<path d="" fill="#FFEB46" transform="translate(0,0)"/>
<path d="" fill="#F3BE32" transform="translate(0,0)"/>
<path d="" fill="#F28C4C" transform="translate(0,0)"/>
<path d="M0 0 C2 1 2 1 2 1 Z " fill="#EE8A4F" transform="translate(125,37)"/>
<path d="M0 0 C2 1 2 1 2 1 Z " fill="#FFD794" transform="translate(127,36)"/>
<path d="" fill="#43000D" transform="translate(0,0)"/>
<path d="" fill="#530016" transform="translate(0,0)"/>
<path d="" fill="#190001" transform="translate(0,0)"/>
<path d="" fill="#6E162F" transform="translate(0,0)"/>
<path d="" fill="#0E0302" transform="translate(0,0)"/>
<path d="" fill="#230001" transform="translate(0,0)"/>
<path d="" fill="#080000" transform="translate(0,0)"/>
<path d="" fill="#330F19" transform="translate(0,0)"/>
<path d="" fill="#0B0000" transform="translate(0,0)"/>
<path d="" fill="#320512" transform="translate(0,0)"/>
<path d="" fill="#3D000D" transform="translate(0,0)"/>
<path d="" fill="#400013" transform="translate(0,0)"/>
<path d="" fill="#350511" transform="translate(0,0)"/>
<path d="" fill="#310912" transform="translate(0,0)"/>
<path d="" fill="#2B040A" transform="translate(0,0)"/>
<path d="" fill="#2F0B17" transform="translate(0,0)"/>
<path d="" fill="#42000F" transform="translate(0,0)"/>
<path d="" fill="#3A0009" transform="translate(0,0)"/>
<path d="" fill="#49000E" transform="translate(0,0)"/>
<path d="" fill="#520212" transform="translate(0,0)"/>
<path d="" fill="#6E0D22" transform="translate(0,0)"/>
<path d="" fill="#380D17" transform="translate(0,0)"/>
<path d="" fill="#35050A" transform="translate(0,0)"/>
<path d="" fill="#954E34" transform="translate(0,0)"/>
<path d="" fill="#E4B153" transform="translate(0,0)"/>
<path d="" fill="#FFF769" transform="translate(0,0)"/>
<path d="" fill="#FBB84D" transform="translate(0,0)"/>
<path d="" fill="#3D0006" transform="translate(0,0)"/>
<path d="" fill="#D98152" transform="translate(0,0)"/>
<path d="" fill="#37000C" transform="translate(0,0)"/>
<path d="" fill="#3E0310" transform="translate(0,0)"/>
<path d="" fill="#420614" transform="translate(0,0)"/>
<path d="" fill="#480112" transform="translate(0,0)"/>
<path d="" fill="#3F0614" transform="translate(0,0)"/>
<path d="" fill="#310612" transform="translate(0,0)"/>
<path d="" fill="#44020D" transform="translate(0,0)"/>
<path d="" fill="#480218" transform="translate(0,0)"/>
<path d="" fill="#3E0013" transform="translate(0,0)"/>
<path d="" fill="#400514" transform="translate(0,0)"/>
<path d="" fill="#340A0F" transform="translate(0,0)"/>
<path d="" fill="#46000B" transform="translate(0,0)"/>
<path d="" fill="#FFD377" transform="translate(0,0)"/>
<path d="" fill="#ED851D" transform="translate(0,0)"/>
<path d="" fill="#F7AF53" transform="translate(0,0)"/>
<path d="" fill="#FAA945" transform="translate(0,0)"/>
<path d="" fill="#FFCD6E" transform="translate(0,0)"/>
<path d="" fill="#F38C1F" transform="translate(0,0)"/>
<path d="" fill="#FFB755" transform="translate(0,0)"/>
<path d="" fill="#FFFF62" transform="translate(0,0)"/>
<path d="" fill="#FFB14A" transform="translate(0,0)"/>
<path d="" fill="#F4B349" transform="translate(0,0)"/>
<path d="" fill="#FCFF62" transform="translate(0,0)"/>
<path d="" fill="#FFB14F" transform="translate(0,0)"/>
<path d="" fill="#FFCE79" transform="translate(0,0)"/>
<path d="" fill="#FC8F29" transform="translate(0,0)"/>
<path d="" fill="#F1AF3B" transform="translate(0,0)"/>
<path d="" fill="#FEB537" transform="translate(0,0)"/>
<path d="" fill="#FDC363" transform="translate(0,0)"/>
<path d="" fill="#F0B754" transform="translate(0,0)"/>
<path d="" fill="#FFFD6B" transform="translate(0,0)"/>
<path d="" fill="#FFE959" transform="translate(0,0)"/>
<path d="" fill="#F6BC5C" transform="translate(0,0)"/>
<path d="" fill="#FFEC4A" transform="translate(0,0)"/>
<path d="" fill="#E7B44A" transform="translate(0,0)"/>
<path d="" fill="#EFA847" transform="translate(0,0)"/>
<path d="" fill="#F2B757" transform="translate(0,0)"/>
<path d="" fill="#FFE14A" transform="translate(0,0)"/>
<path d="" fill="#FBC165" transform="translate(0,0)"/>
<path d="" fill="#FFF06B" transform="translate(0,0)"/>
<path d="" fill="#EFB75F" transform="translate(0,0)"/>
<path d="" fill="#F8BD68" transform="translate(0,0)"/>
<path d="" fill="#F6BE64" transform="translate(0,0)"/>
<path d="" fill="#E9B458" transform="translate(0,0)"/>
<path d="" fill="#FFB249" transform="translate(0,0)"/>
<path d="" fill="#FFDE4D" transform="translate(0,0)"/>
<path d="" fill="#FFF15F" transform="translate(0,0)"/>
<path d="" fill="#FFFA68" transform="translate(0,0)"/>
<path d="" fill="#FCB64C" transform="translate(0,0)"/>
<path d="" fill="#F8AF5F" transform="translate(0,0)"/>
<path d="" fill="#FFB664" transform="translate(0,0)"/>
<path d="" fill="#FFAC3B" transform="translate(0,0)"/>
<path d="" fill="#FFFF73" transform="translate(0,0)"/>
<path d="" fill="#FCAD4A" transform="translate(0,0)"/>
<path d="" fill="#E88519" transform="translate(0,0)"/>
<path d="" fill="#FFD57C" transform="translate(0,0)"/>
<path d="" fill="#F4A63C" transform="translate(0,0)"/>
<path d="" fill="#FFB951" transform="translate(0,0)"/>
<path d="" fill="#E9860F" transform="translate(0,0)"/>
<path d="" fill="#FFD371" transform="translate(0,0)"/>
<path d="" fill="#FCAF47" transform="translate(0,0)"/>
<path d="" fill="#F0EC69" transform="translate(0,0)"/>
<path d="" fill="#F9AB3B" transform="translate(0,0)"/>
<path d="" fill="#EFA23D" transform="translate(0,0)"/>
<path d="" fill="#F17B16" transform="translate(0,0)"/>
<path d="" fill="#FFD481" transform="translate(0,0)"/>
</svg>
